# xmcd
# 
# Track frame offsets:
#     150
#     12975
#     52830
#     83260
#     98070
#     136600
#     167162
#     199717
#     240270
#     272650
#     289715
# 
# Disc length: 4188
# 
# Revision: 0
# Processed by: cddbd v1.5.2PL0 Copyright (c) Steve Scherf et al.
# Submitted via: BonkEnc v1.0.8
# 
DISCID=7c105a0b
DTITLE=Ronnie Earl and The Broadcasters - Grateful Heart: Blues And Ballads
DYEAR=1996
DGENRE=Blues
TTITLE0=Alabama
TTITLE1=Ice Cream Man
TTITLE2=Drown In My Own Tears
TTITLE3=Still Soul Searching
TTITLE4=Skyman
TTITLE5=Welcome Home
TTITLE6=For Abby
TTITLE7=Isabella
TTITLE8=Little Flower
TTITLE9=Soundcheck
TTITLE10=Mr. B.K.
EXTD=
EXTT0=
EXTT1=
EXTT2=
EXTT3=
EXTT4=
EXTT5=
EXTT6=
EXTT7=
EXTT8=
EXTT9=
EXTT10=
PLAYORDER=
